<?xml version="1.0" encoding="UTF-8" standalone="no"?>
<svg
   xmlns="http://www.w3.org/2000/svg"
   id="f0862836-4e64-470e-8684-783773d4b1d8"
   width="1000"
   height="1000"
   viewBox="-10 -80 980 980"
   version="1.1">
  <ellipse
     cx="500"
     cy="820"
     rx="250"
     ry="9"
     id="ellipse113"
     fill="#ffffff" />
  <circle
     cx="400"
     cy="350"
     r="175"
     id="circle115"
     fill="#ff6584" />
  <path
     d="M490,850s60-170,30-270-60-90-60-100-50-10-100,20-70,50-110,30-40-40-120-30c0,0,40-20,80-0s70,30,110,0S420,420,480,450c0,0-41.76764-40.96442-55.42244-40.96442s-77.9127-6.42579-98.79652-28.11283c0,0-29.71928-20.88381-82.732,30.52251s-40.16119,51.40632-87.55139,47.3902S72.23827,427.9938,72.23827,427.9938s55.42243,22.49026,89.15783,11.24513,62.65145-53.816,92.37073-68.274,47.3902-33.73539,87.55139-12.85158c0,0-16.8677-69.07724-48.99665-63.45467s15.26125-16.06448,15.26125-16.06448-8.83546-117.27066-25.70316-125.3029-6.42579-28.916-37.75151-32.93217c0,0,38.55474-4.81935,45.78375,21.687s57.02888,169.48021,57.02888,169.48021,30.52251,61.045,64.2579,46.587-12.85158-95.58362-12.85158-95.58362L340.515,236.02333s43.37409-1.60645,69.88047,23.29348,28.11283,105.22231,28.11283,105.22231,66.66757,9.63869,82.732,45.78376c0,0,10.4419-32.12895-9.63869-51.40632-5.02015-4.81934-10.2913-13.203-15.3742-23.06758-19.438-37.72422-26.0323-80.72643-19.91733-122.72121,2.99238-20.55024,4.834-40.64371,1.55613-45.37846-7.229-10.44191-37.75151-74.69981-40.16118-91.56751s2.40967-52.20954,2.40967-52.20954.80322,43.37408,10.44191,57.02888,36.94829,81.1256,36.94829,81.1256,0,85.14172,22.49026,126.90935,65.86435,88.35461,63.45468,118.87712v17.67092s48.19342-45.78375,44.98053-61.045-7.229-51.40632-37.75152-73.09336S530.0758,235.2201,551.76284,185.42023s21.687-58.63533,21.687-58.63533l-14.458,61.84823s-8.03224,55.42243,14.458,74.6998,52.20954,54.61922,52.20954,54.61922l-6.42579-115.66422,20.88382,45.78375s44.98053-57.83211,97.9933-77.10948S824.05569,84.214,824.05569,84.214l44.98053-35.34185L832.08792,93.0495s-11.24513,52.20954-74.6998,89.15784S652.969,273.77484,650.55936,307.51024,645.74,370.96491,645.74,370.96491s118.87711-4.01611,145.38349-56.22566,28.91606-155.8254,54.61922-172.6931,73.89658-37.75152,73.89658-37.75152l-53.816,44.17731s-11.24513,36.14507-8.83546,61.84823S839.31694,260.12,839.31694,260.12l-15.26125,44.98053L807.188,343.65531s69.07724,1.60644,105.22231,42.57086,126.10612,53.01276,126.10612,53.01276l-50.60309,13.65481S939.7199,436.82926,893.93615,407.11s-40.96441-56.22566-97.9933-26.50638-134.94158,54.61921-134.94158,54.61921S705.9818,414.339,787.10739,464.94209s-40.16118-8.83546-76.30625,10.44191-53.01277-4.81934-67.4708,43.37408-40.96441,179.92212-10.4419,253.8187l30.5225,73.89659Z"
     id="path117"
     transform="translate(-72.23827 -23.97221)"
     fill="#ffffff" />
  <path
     d="M792.34193,314.73922c-21.53454,42.41677-104.03814,53.02354-134.23047,55.51024-.84665,10.88865-1.40489,17.7746-1.40489,17.7746S775.5837,384.0079,802.09,331.79836s28.9161-155.8254,54.61934-172.6931c2.72588-1.78887,5.7067-3.62311,8.85412-5.47266.88295-3.24187,1.47837-5.16067,1.47837-5.16067l53.816-44.1773s-48.19331,20.88379-73.89654,37.75149S818.84838,262.52969,792.34193,314.73922Z"
     id="path119"
     transform="translate(-72.23827 -23.97221)"
     opacity="0.1" />
  <path
     d="M653.82615,233.59276c-.17537,19.776-2.74209,31.538-2.74209,31.538s44.96169-57.80737,97.96-77.097c3.13225-1.98157,6.31-3.93256,9.56245-5.82645,63.45472-36.94834,74.6999-89.15788,74.6999-89.15788l36.94828-44.1773L825.27412,84.214s-32.93219,67.47081-85.9448,86.74816C703.19349,184.10241,670.79559,215.15179,653.82615,233.59276Z"
     id="path121"
     transform="translate(-72.23827 -23.97221)"
     opacity="0.1" />
  <path
     d="M584.41647,424.97233v17.67092s48.19345-45.78373,44.98044-61.045c-2.457-11.67126-5.39881-35.55224-20.29224-55.84417,6.71326,15.335,8.75655,30.29325,10.54416,38.785,2.304,10.94376-21.82519,37.58133-35.66283,51.77819A36.62966,36.62966,0,0,1,584.41647,424.97233Z"
     id="path123"
     transform="translate(-72.23827 -23.97221)"
     opacity="0.1" />
  <path
     d="M519.76941,303.70533c.38168.81408.77525,1.61514,1.19233,2.38987,12.31718,22.87472,30.88681,47.19025,44.78053,69.52548C554.5133,353.5018,534.97163,328.2085,519.76941,303.70533Z"
     id="path125"
     transform="translate(-72.23827 -23.97221)"
     opacity="0.1" />
  <path
     d="M558.92846,269.50927c-6.4772-15.87053-7.54443-34.755-.10308-56.88411a173.59159,173.59159,0,0,1,1.385-23.992l12.64754-54.10334c-2.33186,7.80221-7.66715,22.854-19.87664,50.8904C537.52467,220.91331,543.29325,248.64809,558.92846,269.50927Z"
     id="path127"
     transform="translate(-72.23827 -23.97221)"
     opacity="0.1" />
  <path
     d="M913.62886,386.22612c-25.06676-28.409-65.96552-37.88655-88.68555-41.02891l-6.78867,15.51718s69.07724,1.60651,105.2223,42.57086c20.044,22.71661,56.63273,36.53737,85.257,44.346l31.101-8.39227S949.77391,427.19055,913.62886,386.22612Z"
     id="path129"
     transform="translate(-72.23827 -23.97221)"
     opacity="0.1" />
  <path
     d="M422.16518,375.17244c33.73541-14.45805-12.85147-95.58362-12.85147-95.58362l-1.27443-.58412c11.61436,24.50481,28.45871,68.78824,4.37782,79.1086-22.5332,9.65713-43.63-14.36887-55.15808-31.39127.41856,1.20393.64837,1.86346.64837,1.86346S388.42978,389.63049,422.16518,375.17244Z"
     id="path131"
     transform="translate(-72.23827 -23.97221)"
     opacity="0.1" />
  <path
     d="M532.20693,427.382s10.1653-31.33364-8.93133-50.67956c4.6829,16.66623-.81675,33.62042-.81675,33.62042-12.4271-27.96079-55.12834-40.05739-73.83214-44.10292.72543,9.30906.84814,15.37833.84814,15.37833S516.14244,391.23693,532.20693,427.382Z"
     id="path133"
     transform="translate(-72.23827 -23.97221)"
     opacity="0.1" />
  <path
     d="M572.85788,134.5298c1.81006-6.05648,1.81051-7.74495,1.81051-7.74495Z"
     id="path135"
     transform="translate(-72.23827 -23.97221)"
     opacity="0.1" />
  <path
     d="M171.87524,456.45151c.162-.05213.32649-.09981.48743-.15343,33.7354-11.24518,62.65151-53.81605,92.37083-68.274s47.39009-33.73541,87.55122-12.85162c0,0-7.02606-28.7597-20.64148-47.65448a187.3908,187.3908,0,0,1,10.89341,30.59534c-40.16114-20.88378-57.83206-1.60643-87.55123,12.85162-29.71932,14.458-58.63542,57.02884-92.37083,68.274s-89.15781-11.24519-89.15781-11.24519,36.94827,23.29351,84.33851,27.3096C163.21641,455.76275,167.84205,456.16815,171.87524,456.45151Z"
     id="path137"
     transform="translate(-72.23827 -23.97221)"
     opacity="0.1" />
  <path
     d="M506.749,846.47337c14.71731-45.116,50.11121-169.87381,22.24509-252.8241-12.03412-35.82272-23.18857-58.66584-32.61819-73.23894,7.0518,13.7954,14.76164,32.043,22.87011,56.17981C553.7846,679.40278,491.1331,846.47337,491.1331,846.47337Z"
     id="path139"
     transform="translate(-72.23827 -23.97221)"
     opacity="0.1" />
  <path
     d="M193.06752,504.335a81.99255,81.99255,0,0,1,28.29182,8.18873c32.98678,16.49331,57.46154,26.9535,87.26282,14.80484,6.78881-3.58629,14.38234-8.02413,23.13948-13.30751.68274-.49822,1.35893-.97643,2.0491-1.49733,42.57079-32.129,101.20621-73.89662,158.2349-48.99668,0,0-11.52572-11.30089-24.44576-22.03179-52.27082-12.82268-104.6175,24.59591-143.53722,53.96933-42.57094,32.129-70.68367,20.88379-112.4514,0s-84.3385,2.40965-84.3385,2.40965C158.30727,496.94316,178.305,499.73114,193.06752,504.335Z"
     id="path141"
     transform="translate(-72.23827 -23.97221)"
     opacity="0.1" />
  <path
     d="M274.59744,145.49371a21.01179,21.01179,0,0,0,3.30316,4.22284A23.705,23.705,0,0,0,274.59744,145.49371Z"
     id="path143"
     transform="translate(-72.23827 -23.97221)"
     opacity="0.1" />
  <path
     d="M421.362,276.376a39.10828,39.10828,0,0,1,3.48224,3.75437c-3.51854-8.45832-7.86364-15.77227-13.23032-20.8135-26.50631-24.9-69.88046-23.29351-69.88046-23.29351l54.39563,24.93133A77.67982,77.67982,0,0,1,421.362,276.376Z"
     id="path145"
     transform="translate(-72.23827 -23.97221)"
     opacity="0.1" />
  <path
     d="M479.0847,167.74928c3.278,4.73474,1.43627,24.82825-1.55616,45.37848-6.11486,41.99478.4794,84.997,19.91739,122.72119a142.93383,142.93383,0,0,0,8.55858,14.69181c-18.50924-37.151-24.71543-79.23377-18.7279-120.35386,2.99243-20.55023,4.83418-40.64374,1.55616-45.37848-7.22895-10.44189-37.75149-74.69983-40.16114-91.56754a116.89363,116.89363,0,0,1-.5032-19.7093c-6.23935-17.70312-6.83522-49.55937-6.83522-49.55937s-4.8193,35.34191-2.40965,52.20954S471.85574,157.30739,479.0847,167.74928Z"
     id="path147"
     transform="translate(-72.23827 -23.97221)"
     opacity="0.1" />
  <path
     d="M554.43937,56.70657a22.98529,22.98529,0,0,0-1.45813-4.62147S553.59852,53.81863,554.43937,56.70657Z"
     id="path149"
     transform="translate(-72.23827 -23.97221)"
     opacity="0.1" />
  <path
     d="M270.73739,137.60166c7.079.86658,15.22185,3.03854,21.4331,8.07567-.40518-1.37038-.75859-2.59885-1.04-3.63121-7.2291-26.50638-45.7838-21.687-45.7838-21.687C262.77008,122.59288,267.27047,130.04517,270.73739,137.60166Z"
     id="path151"
     transform="translate(-72.23827 -23.97221)"
     opacity="0.1" />
  <path
     d="M470.37569,812.15391c5.72694,21.17024,25.343,34.2815,25.343,34.2815s10.33087-21.21248,4.60392-42.38271-25.343-34.2815-25.343-34.2815S464.64874,790.98367,470.37569,812.15391Z"
     id="path153"
     transform="translate(-72.23827 -23.97221)"
     fill="#3f3d56" />
  <path
     d="M478.791,807.6042c15.71483,15.29775,17.63428,38.81395,17.63428,38.81395s-23.55932-1.28635-39.27414-16.5841-17.63428-38.814-17.63428-38.814S463.07621,792.30645,478.791,807.6042Z"
     id="path155"
     transform="translate(-72.23827 -23.97221)"
     fill="#4b40ff" />
  <path
     d="M426.70525,233.61267C425.33909,255.50126,408.75,272.2792,408.75,272.2792s-14.37407-18.71048-13.0079-40.59908,17.95522-38.66652,17.95522-38.66652S428.07142,211.72408,426.70525,233.61267Z"
     id="path157"
     transform="translate(-72.23827 -23.97221)"
     fill="#4b40ff" />
  <path
     d="M253.779,95.23684c18.55193,11.69627,25.31859,34.29955,25.31859,34.29955s-23.312,3.63987-41.86388-8.0564-25.31859-34.29956-25.31859-34.29956S235.2271,83.54056,253.779,95.23684Z"
     id="path159"
     transform="translate(-72.23827 -23.97221)"
     fill="#4b40ff" />
  <path
     d="M212.3497,362.09045C230.90162,373.78673,237.66828,396.39,237.66828,396.39s-23.31195,3.63987-41.86388-8.05641-25.31859-34.29955-25.31859-34.29955S193.79777,350.39418,212.3497,362.09045Z"
     id="path161"
     transform="translate(-72.23827 -23.97221)"
     fill="#4b40ff" />
  <path
     d="M311.049,464.44526c18.55193,11.69628,25.31858,34.29956,25.31858,34.29956s-23.312,3.63987-41.86388-8.0564-25.31858-34.29956-25.31858-34.29956S292.49705,452.749,311.049,464.44526Z"
     id="path163"
     transform="translate(-72.23827 -23.97221)"
     fill="#4b40ff" />
  <path
     d="M589.50244,134.24869c-5.59474,21.20556-25.12864,34.439-25.12864,34.439s-10.463-21.14761-4.86828-42.35317,25.12865-34.439,25.12865-34.439S595.09719,113.04313,589.50244,134.24869Z"
     id="path165"
     transform="translate(-72.23827 -23.97221)"
     fill="#4b40ff" />
  <path
     d="M765.98589,150.78317c-6.57575,20.92215-26.70446,33.23195-26.70446,33.23195s-9.46731-21.61171-2.89155-42.53386,26.70445-33.23195,26.70445-33.23195S772.56164,129.861,765.98589,150.78317Z"
     id="path167"
     transform="translate(-72.23827 -23.97221)"
     fill="#4b40ff" />
  <path
     d="M956.73676,383.63692c-11.91153,18.41446-34.59208,24.91744-34.59208,24.91744s-3.36814-23.35276,8.54338-41.76723,34.59208-24.91743,34.59208-24.91743S968.64828,365.22246,956.73676,383.63692Z"
     id="path169"
     transform="translate(-72.23827 -23.97221)"
     fill="#4b40ff" />
</svg>
