<?xml version="1.0" encoding="UTF-8" standalone="no"?>
<svg
   xmlns:svg="http://www.w3.org/2000/svg"
   xmlns="http://www.w3.org/2000/svg"
   xmlns:xlink="http://www.w3.org/1999/xlink"
   version="1.1"
   viewBox="-10 -80 3136 1176"
   height="1200"
   width="3200"
   id="f0862836-4e64-470e-8684-783773d4b1d8">
  <ellipse
     cx="525.49219"
     cy="882.14111"
     rx="246.10849"
     ry="8.8690863"
     style="fill:#3f3d56;stroke-width:0.98494387"
     id="ellipse113" />
  <circle
     style="fill:#ff6584"
     id="circle115"
     r="175"
     cy="412.14111"
     cx="429.38367" />
  <path
     style="fill:#3f3d56"
     id="path117"
     d="m 447.14539,888.16891 c 0,0 60,-170 30,-270 -30,-100.00001 -60,-90.00001 -60,-100.00001 0,-10 -50,-10 -100,20 -50,30 -70,50.00001 -110,30 -40,-20 -40,-40 -120,-30 0,0 40,-20 80,0 40,20 70,30 110,0 40,-30 100,-80 160,-50 0,0 -41.76764,-40.96442 -55.42244,-40.96442 -13.6548,0 -77.9127,-6.42579 -98.79652,-28.11283 0,0 -29.71928,-20.88381 -82.732,30.52251 -53.01272,51.40632 -40.16119,51.40632 -87.55139,47.3902 -47.3902,-4.01612 -83.25938,-30.84166 -83.25938,-30.84166 0,0 55.42243,22.49026 89.15783,11.24513 33.7354,-11.24513 62.65145,-53.816 92.37073,-68.274 29.71928,-14.458 47.3902,-33.73539 87.55139,-12.85158 0,0 -16.8677,-69.07724 -48.99665,-63.45467 -32.12895,5.62257 15.26125,-16.06448 15.26125,-16.06448 0,0 -8.83546,-117.27066 -25.70316,-125.3029 -16.8677,-8.03224 -6.42579,-28.916 -37.75151,-32.93217 0,0 38.55474,-4.81935 45.78375,21.687 7.22901,26.50635 57.02888,169.48021 57.02888,169.48021 0,0 30.52251,61.045 64.2579,46.587 33.73539,-14.458 -12.85158,-95.58362 -12.85158,-95.58362 l -57.8321,-26.50639 c 0,0 43.37409,-1.60645 69.88047,23.29348 26.50638,24.89993 28.11283,105.22231 28.11283,105.22231 0,0 66.66757,9.63869 82.732,45.78376 0,0 10.4419,-32.12895 -9.63869,-51.40632 -5.02015,-4.81934 -10.2913,-13.203 -15.3742,-23.06758 -19.438,-37.72422 -26.0323,-80.72643 -19.91733,-122.72121 2.99238,-20.55024 4.834,-40.64371 1.55613,-45.37846 -7.229,-10.44191 -37.75151,-74.69981 -40.16118,-91.56751 -2.40967,-16.867704 2.40967,-52.209544 2.40967,-52.209544 0,0 0.80322,43.374084 10.44191,57.028884 9.63869,13.6548 36.94829,81.1256 36.94829,81.1256 0,0 0,85.14172 22.49026,126.90935 22.49026,41.76763 65.86435,88.35461 63.45468,118.87712 v 17.67092 c 0,0 48.19342,-45.78375 44.98053,-61.045 -3.21289,-15.26125 -7.229,-51.40632 -37.75152,-73.09336 -30.52252,-21.68704 -50.60305,-56.22567 -28.91601,-106.02554 21.68704,-49.79987 21.687,-58.63533 21.687,-58.63533 l -14.458,61.84823 c 0,0 -8.03224,55.42243 14.458,74.6998 22.49024,19.27737 52.20954,54.61922 52.20954,54.61922 l -6.42579,-115.66422 20.88382,45.78375 c 0,0 44.98053,-57.83211 97.9933,-77.10948 53.01277,-19.27737 85.94498,-86.7482 85.94498,-86.7482 l 44.98053,-35.341854 -36.9483,44.177354 c 0,0 -11.24513,52.20954 -74.6998,89.15784 -63.45467,36.9483 -104.41912,91.5675 -106.82876,125.3029 -2.40964,33.7354 -4.81936,63.45467 -4.81936,63.45467 0,0 118.87711,-4.01611 145.38349,-56.22566 26.50638,-52.20955 28.91606,-155.8254 54.61922,-172.6931 25.70316,-16.8677 73.89658,-37.75152 73.89658,-37.75152 l -53.816,44.17731 c 0,0 -11.24513,36.14507 -8.83546,61.84823 2.40967,25.70316 -17.67089,49.79983 -17.67089,49.79983 l -15.26125,44.98053 -16.86769,38.55478 c 0,0 69.07724,1.60644 105.22231,42.57086 36.14507,40.96442 126.10609,53.01276 126.10609,53.01276 l -50.60306,13.65481 c 0,0 -48.19344,-16.06448 -93.97719,-45.78374 -45.78375,-29.71926 -40.96441,-56.22566 -97.9933,-26.50638 -57.02889,29.71928 -134.94158,54.61921 -134.94158,54.61921 0,0 42.75195,-20.61186 125.80206,26.76656 17.20207,9.81343 25.3766,16.75461 27.23546,21.5132 4.69045,12.0073 -30.83088,10.1181 -62.99572,5.41249 -14.99846,-2.19422 -42.0079,-19.7855 -51.05674,-14.95945 -36.14507,19.27737 -42.19796,-3.39097 -56.65599,44.80245 -14.45803,48.19343 -40.96441,179.92213 -10.4419,253.81873 l 30.5225,73.8966 z" />
  <path
     style="opacity:0.1"
     id="path119"
     d="m 749.48732,352.90812 c -21.53454,42.41677 -104.03814,53.02354 -134.23047,55.51024 -0.84665,10.88865 -1.40489,17.7746 -1.40489,17.7746 0,0 118.87713,-4.01616 145.38343,-56.2257 26.5063,-52.20954 28.9161,-155.8254 54.61934,-172.6931 2.72588,-1.78887 5.7067,-3.62311 8.85412,-5.47266 0.88295,-3.24187 1.47837,-5.16067 1.47837,-5.16067 l 53.816,-44.1773 c 0,0 -48.19331,20.88379 -73.89654,37.75149 -25.70323,16.8677 -28.11291,120.48357 -54.61936,172.6931 z" />
  <path
     style="opacity:0.1"
     id="path121"
     d="m 610.97154,271.76166 c -0.17537,19.776 -2.74209,31.538 -2.74209,31.538 0,0 44.96169,-57.80737 97.96,-77.097 3.13225,-1.98157 6.31,-3.93256 9.56245,-5.82645 63.45472,-36.94834 74.6999,-89.15788 74.6999,-89.15788 L 827.40008,87.041026 782.41951,122.3829 c 0,0 -32.93219,67.47081 -85.9448,86.74816 -36.13583,13.14025 -68.53373,44.18963 -85.50317,62.6306 z" />
  <path
     style="opacity:0.1"
     id="path123"
     d="m 541.56186,463.14123 v 17.67092 c 0,0 48.19345,-45.78373 44.98044,-61.045 -2.457,-11.67126 -5.39881,-35.55224 -20.29224,-55.84417 6.71326,15.335 8.75655,30.29325 10.54416,38.785 2.304,10.94376 -21.82519,37.58133 -35.66283,51.77819 a 36.62966,36.62966 0 0 1 0.43047,8.65506 z" />
  <path
     style="opacity:0.1"
     id="path125"
     d="m 476.9148,341.87423 c 0.38168,0.81408 0.77525,1.61514 1.19233,2.38987 12.31718,22.87472 30.88681,47.19025 44.78053,69.52548 C 511.65869,391.6707 492.11702,366.3774 476.9148,341.87423 Z" />
  <path
     style="opacity:0.1"
     id="path127"
     d="m 516.07385,307.67817 c -6.4772,-15.87053 -7.54443,-34.755 -0.10308,-56.88411 a 173.59159,173.59159 0 0 1 1.385,-23.992 l 12.64754,-54.10334 c -2.33186,7.80221 -7.66715,22.854 -19.87664,50.8904 -15.45661,35.49309 -9.68803,63.22787 5.94718,84.08905 z" />
  <path
     style="opacity:0.1"
     id="path129"
     d="m 870.77425,424.39502 c -25.06676,-28.409 -65.96552,-37.88655 -88.68555,-41.02891 l -6.78867,15.51718 c 0,0 69.07724,1.60651 105.2223,42.57086 20.044,22.71661 56.63273,36.53737 85.25696,44.346 l 31.101,-8.39227 c 0,0 -89.96099,-12.04843 -126.10604,-53.01286 z" />
  <path
     style="opacity:0.1"
     id="path131"
     d="M 379.31057,413.34134 C 413.04598,398.88329 366.4591,317.75772 366.4591,317.75772 l -1.27443,-0.58412 c 11.61436,24.50481 28.45871,68.78824 4.37782,79.1086 -22.5332,9.65713 -43.63,-14.36887 -55.15808,-31.39127 0.41856,1.20393 0.64837,1.86346 0.64837,1.86346 0,0 30.52239,61.045 64.25779,46.58695 z" />
  <path
     style="opacity:0.1"
     id="path133"
     d="m 489.35232,465.5509 c 0,0 10.1653,-31.33364 -8.93133,-50.67956 4.6829,16.66623 -0.81675,33.62042 -0.81675,33.62042 -12.4271,-27.96079 -55.12834,-40.05739 -73.83214,-44.10292 0.72543,9.30906 0.84814,15.37833 0.84814,15.37833 0,0 66.66759,9.63866 82.73208,45.78373 z" />
  <path
     style="opacity:0.1"
     id="path135"
     d="m 530.00327,172.6987 c 1.81006,-6.05648 1.81051,-7.74495 1.81051,-7.74495 z" />
  <path
     style="opacity:0.1"
     id="path137"
     d="m 129.02063,494.62041 c 0.162,-0.0521 0.32649,-0.0998 0.48743,-0.15343 33.7354,-11.24518 62.65151,-53.81605 92.37083,-68.274 29.71932,-14.45795 47.39009,-33.73541 87.55122,-12.85162 0,0 -7.02606,-28.7597 -20.64148,-47.65448 a 187.3908,187.3908 0 0 1 10.89341,30.59534 c -40.16114,-20.88378 -57.83206,-1.60643 -87.55123,12.85162 -29.71932,14.458 -58.63542,57.02884 -92.37083,68.274 -33.73541,11.24516 -89.15781,-11.24519 -89.15781,-11.24519 0,0 36.94827,23.29351 84.33851,27.3096 5.42112,0.4594 10.04676,0.8648 14.07995,1.14816 z" />
  <path
     style="opacity:0.1"
     id="path139"
     d="m 463.89439,884.64231 c 14.71731,-45.116 50.11121,-169.8738 22.24509,-252.8241 -12.03412,-35.8228 -23.18857,-58.6659 -32.61819,-73.23898 7.0518,13.79538 14.76164,32.04298 22.87011,56.17978 34.53859,102.8127 -28.11291,269.8833 -28.11291,269.8833 z" />
  <path
     style="opacity:0.1"
     id="path141"
     d="m 150.21291,542.5039 a 81.99255,81.99255 0 0 1 28.29182,8.18873 c 32.98678,16.49331 57.46154,26.95348 87.26282,14.80484 6.78881,-3.58629 14.38234,-8.02413 23.13948,-13.30751 0.68274,-0.49822 1.35893,-0.97643 2.0491,-1.49733 42.57079,-32.129 101.20621,-73.89662 158.2349,-48.99668 0,0 -11.52572,-11.30089 -24.44576,-22.03179 -52.27082,-12.82268 -104.6175,24.59591 -143.53722,53.96933 -42.57094,32.129 -70.68367,20.88379 -112.4514,0 -41.76773,-20.88379 -84.3385,2.40965 -84.3385,2.40965 31.03451,-0.93108 51.03224,1.8569 65.79476,6.46076 z" />
  <path
     style="opacity:0.1"
     id="path143"
     d="m 231.74283,183.66261 a 21.01179,21.01179 0 0 0 3.30316,4.22284 23.705,23.705 0 0 0 -3.30316,-4.22284 z" />
  <path
     style="opacity:0.1"
     id="path145"
     d="m 378.50739,314.5449 a 39.10828,39.10828 0 0 1 3.48224,3.75437 c -3.51854,-8.45832 -7.86364,-15.77227 -13.23032,-20.8135 -26.50631,-24.9 -69.88046,-23.29351 -69.88046,-23.29351 l 54.39563,24.93133 a 77.67982,77.67982 0 0 1 25.23291,15.42131 z" />
  <path
     style="opacity:0.1"
     id="path147"
     d="m 436.23009,205.91818 c 3.278,4.73474 1.43627,24.82825 -1.55616,45.37848 -6.11486,41.99478 0.4794,84.997 19.91739,122.72119 a 142.93383,142.93383 0 0 0 8.55858,14.69181 c -18.50924,-37.151 -24.71543,-79.23377 -18.7279,-120.35386 2.99243,-20.55023 4.83418,-40.64374 1.55616,-45.37848 -7.22895,-10.44189 -37.75149,-74.69983 -40.16114,-91.56754 a 116.89363,116.89363 0 0 1 -0.5032,-19.7093 c -6.23935,-17.703124 -6.83522,-49.559374 -6.83522,-49.559374 0,0 -4.8193,35.34191 -2.40965,52.209544 2.40965,16.86763 32.93218,81.12564 40.16114,91.56753 z" />
  <path
     style="opacity:0.1"
     id="path149"
     d="m 511.58476,94.875466 a 22.98529,22.98529 0 0 0 -1.45813,-4.62147 c 0,0 0.61728,1.73353 1.45813,4.62147 z" />
  <path
     style="opacity:0.1"
     id="path151"
     d="m 227.88278,175.77056 c 7.079,0.86658 15.22185,3.03854 21.4331,8.07567 -0.40518,-1.37038 -0.75859,-2.59885 -1.04,-3.63121 -7.2291,-26.50638 -45.7838,-21.687 -45.7838,-21.687 17.42339,2.23376 21.92378,9.68605 25.3907,17.24254 z" />
  <path
     style="fill:#3f3d56"
     id="path153"
     d="m 427.52108,850.32281 c 5.72694,21.1702 25.343,34.2815 25.343,34.2815 0,0 10.33087,-21.2125 4.60392,-42.3827 -5.72695,-21.1702 -25.343,-34.2815 -25.343,-34.2815 0,0 -10.33087,21.2125 -4.60392,42.3827 z" />
  <path
     style="fill:#4b40ff"
     id="path155"
     d="m 435.93639,845.77311 c 15.71483,15.2977 17.63428,38.8139 17.63428,38.8139 0,0 -23.55932,-1.2863 -39.27414,-16.5841 -15.71482,-15.2977 -17.63428,-38.814 -17.63428,-38.814 0,0 23.55935,1.2864 39.27414,16.5842 z" />
  <path
     style="fill:#4b40ff"
     id="path157"
     d="m 383.85064,271.78157 c -1.36616,21.88859 -17.95525,38.66653 -17.95525,38.66653 0,0 -14.37407,-18.71048 -13.0079,-40.59908 1.36617,-21.8886 17.95522,-38.66652 17.95522,-38.66652 0,0 14.3741,18.71048 13.00793,40.59907 z" />
  <path
     style="fill:#4b40ff"
     id="path159"
     d="m 210.92439,133.40574 c 18.55193,11.69627 25.31859,34.29955 25.31859,34.29955 0,0 -23.312,3.63987 -41.86388,-8.0564 -18.55188,-11.69627 -25.31859,-34.29956 -25.31859,-34.29956 0,0 23.31198,-3.63987 41.86388,8.05641 z" />
  <path
     style="fill:#4b40ff"
     id="path161"
     d="m 169.49509,400.25935 c 18.55192,11.69628 25.31858,34.29955 25.31858,34.29955 0,0 -23.31195,3.63987 -41.86388,-8.05641 -18.55193,-11.69628 -25.31859,-34.29955 -25.31859,-34.29955 0,0 23.31196,-3.63986 41.86389,8.05641 z" />
  <path
     style="fill:#4b40ff"
     id="path163"
     d="m 268.19439,502.61416 c 18.55193,11.69628 25.31858,34.29956 25.31858,34.29956 0,0 -23.312,3.63987 -41.86388,-8.0564 -18.55188,-11.69627 -25.31858,-34.29956 -25.31858,-34.29956 0,0 23.31193,-3.63986 41.86388,8.0564 z" />
  <path
     style="fill:#4b40ff"
     id="path165"
     d="m 546.64783,172.41759 c -5.59474,21.20556 -25.12864,34.439 -25.12864,34.439 0,0 -10.463,-21.14761 -4.86828,-42.35317 5.59472,-21.20556 25.12865,-34.439 25.12865,-34.439 0,0 10.46302,21.14761 4.86827,42.35317 z" />
  <path
     style="fill:#4b40ff"
     id="path167"
     d="m 723.13128,188.95207 c -6.57575,20.92215 -26.70446,33.23195 -26.70446,33.23195 0,0 -9.46731,-21.61171 -2.89155,-42.53386 6.57576,-20.92215 26.70445,-33.23195 26.70445,-33.23195 0,0 9.46731,21.61169 2.89156,42.53386 z" />
  <path
     style="fill:#4b40ff"
     id="path169"
     d="m 913.88215,421.80582 c -11.91153,18.41446 -34.59208,24.91744 -34.59208,24.91744 0,0 -3.36814,-23.35276 8.54338,-41.76723 11.91152,-18.41447 34.59208,-24.91743 34.59208,-24.91743 0,0 3.36814,23.35276 -8.54338,41.76722 z" />
  <g
     id="g4565">
    <g
       id="text190"
       style="font-style:normal;font-weight:normal;font-size:39.20000076px;line-height:1.25;font-family:sans-serif;letter-spacing:0px;word-spacing:0px;fill:#000000;fill-opacity:1;stroke:none;stroke-width:0.98000002">
      <path
         id="path4573"
         style="fill:#3f3d56"
         d="m 498.90037,882.23376 h 63.6608 V 723.08177 h 145.432 v 159.15199 h 63.6608 V 523.31857 h -63.6608 v 144.3344 h -145.432 v -144.3344 h -63.6608 z" />
      <path
         id="path4575"
         style="fill:#3f3d56"
         d="m 903.9454,888.81936 c 31.8304,0 59.2704,-15.9152 83.4176,-36.22079 h 2.1952 l 4.3904,29.63519 h 52.136 V 722.53297 c 0,-75.1856 -33.4768,-116.3456 -100.4304,-116.3456 -42.8064,0 -81.2224,16.464 -110.8576,35.1232 l 23.0496,42.2576 c 24.1472,-14.2688 49.392,-26.3424 75.7344,-26.3424 36.7696,0 48.2944,24.1472 49.392,52.6848 -110.8576,12.0736 -158.60319,42.2576 -158.60319,99.8816 0,47.1968 32.37919,79.02719 79.57599,79.02719 z m 20.3056,-49.39199 c -22.5008,0 -38.9648,-10.4272 -38.9648,-34.5744 0,-26.8912 24.1472,-46.0992 97.6864,-55.4288 v 60.368 c -20.3056,18.6592 -36.7696,29.6352 -58.7216,29.6352 z" />
      <path
         id="path4577"
         style="fill:#3f3d56"
         d="m 1103.4734,882.23376 h 63.112 V 717.59377 c 16.464,-40.6112 42.2576,-55.4288 63.6608,-55.4288 11.5248,0 18.6592,1.6464 27.9888,4.3904 l 10.976,-54.88 c -8.232,-3.8416 -17.0128,-5.488 -30.7328,-5.488 -28.5376,0 -57.0752,19.208 -76.2832,54.3312 h -2.1952 l -4.3904,-47.7456 h -52.136 z" />
      <path
         id="path4579"
         style="fill:#3f3d56"
         d="m 1290.0617,882.23376 h 63.112 V 693.99537 c 20.8544,-22.5008 40.0624,-33.4768 56.5264,-33.4768 28.5376,0 41.7088,16.464 41.7088,60.9168 v 160.79839 h 63.112 V 693.99537 c 20.8544,-22.5008 39.5136,-33.4768 56.5264,-33.4768 27.9888,0 41.16,16.464 41.16,60.9168 v 160.79839 h 63.6608 V 713.20337 c 0,-68.0512 -26.3424,-107.016 -83.4176,-107.016 -34.0256,0 -60.9168,20.8544 -86.7104,48.2944 -12.6224,-30.184 -35.1232,-48.2944 -74.6368,-48.2944 -33.4768,0 -59.8192,19.208 -82.32,43.3552 h -2.1952 l -4.3904,-36.7696 h -52.136 z" />
      <path
         id="path4581"
         style="fill:#3f3d56"
         d="m 1845.2807,888.81936 c 67.5024,0 128.4192,-51.58719 128.4192,-141.04159 0,-90.0032 -60.9168,-141.5904 -128.4192,-141.5904 -66.9536,0 -127.8704,51.5872 -127.8704,141.5904 0,89.4544 60.9168,141.04159 127.8704,141.04159 z m 0,-51.58719 c -39.5136,0 -63.112,-35.672 -63.112,-89.4544 0,-54.3312 23.5984,-90.0032 63.112,-90.0032 39.5136,0 63.6608,35.672 63.6608,90.0032 0,53.7824 -24.1472,89.4544 -63.6608,89.4544 z" />
      <path
         id="path4583"
         style="fill:#3f3d56"
         d="m 2018.029,882.23376 h 63.112 V 693.99537 c 22.5007,-21.952 37.8671,-33.4768 61.4655,-33.4768 29.6352,0 42.2576,16.464 42.2576,60.9168 v 160.79839 h 63.112 V 713.20337 c 0,-68.0512 -25.2448,-107.016 -82.8688,-107.016 -36.7696,0 -64.2095,19.208 -88.3567,42.8064 h -2.1952 l -4.3904,-36.2208 h -52.136 z" />
      <path
         id="path4585"
         style="fill:#3f3d56"
         d="m 2325.6278,993.09136 c 58.7216,0 86.7104,-37.8672 109.2112,-98.784 l 97.6864,-281.53439 h -60.9168 l -40.6112,132.2608 c -6.5856,24.1472 -13.72,51.0384 -20.3056,75.7344 h -2.1952 c -8.232,-25.2448 -15.9152,-52.136 -23.5984,-75.7344 l -46.648,-132.2608 h -64.2096 l 105.9184,266.16799 -4.9392,17.0128 c -8.7808,26.8912 -25.2448,46.0992 -53.7824,46.0992 -6.5856,0 -14.2688,-2.1952 -19.208,-3.8416 l -11.5248,49.392 c 9.8784,3.2928 20.3056,5.488 35.1232,5.488 z" />
      <path
         id="path4587"
         style="fill:#3f3d56"
         d="m 2619.2492,888.81936 c 75.1856,0 107.016,-53.78239 107.016,-119.08959 v -246.4112 h -63.6608 v 240.9232 c 0,51.0384 -17.0128,69.1488 -50.4896,69.1488 -21.952,0 -41.7088,-11.5248 -55.9776,-37.8672 l -43.904,32.3792 c 22.5008,40.06239 57.0752,60.91679 107.016,60.91679 z" />
      <path
         id="path4589"
         style="fill:#3f3d56"
         d="m 2902.4778,888.81936 c 80.6736,0 128.968,-48.29439 128.968,-106.46719 0,-52.136 -30.184,-79.0272 -72.4416,-97.1376 l -48.8432,-20.3056 c -29.6352,-12.0736 -57.0752,-22.5008 -57.0752,-50.4896 0,-26.3424 22.5008,-42.2576 56.5264,-42.2576 30.7328,0 54.88,11.5248 77.9296,30.7328 l 32.3792,-40.6112 c -27.9888,-27.9888 -68.6,-45.5504 -110.3088,-45.5504 -70.2464,0 -120.736,43.904 -120.736,100.9792 0,52.6848 37.3184,80.6736 72.4416,95.4912 l 49.392,21.4032 c 32.3792,13.72 55.4288,23.0496 55.4288,52.6848 0,27.9888 -21.952,46.0992 -62.5632,46.0992 -32.928,0 -67.5024,-16.464 -93.296,-40.6112 l -37.3184,43.3552 c 34.0256,33.47679 81.2224,52.68479 129.5168,52.68479 z" />
    </g>
  </g>
</svg>
